<?xml version="1.0" encoding="UTF-8"?>
<!DOCTYPE svg PUBLIC "-//W3C//DTD SVG 1.1//EN" "http://www.w3.org/Graphics/SVG/1.1/DTD/svg11.dtd">
<svg xmlns="http://www.w3.org/2000/svg">
	<symbol id="search" viewBox="0 0 16 16">
    <g>
			<path fill-rule="evenodd" clip-rule="evenodd" d="M16.005 14.5312L14.535 16.0042L9.86494 11.3302C8.58891 12.2413 7.01712 12.6398 5.46113 12.4467C3.90514 12.2536 2.47853 11.4829 1.46394 10.2875C0.449352 9.09211 -0.0791616 7.55916 -0.0167726 5.99247C0.0456164 4.42579 0.694299 2.93971 1.80073 1.82876C2.90717 0.717812 4.39068 0.0630737 5.9571 -0.0056964C7.52352 -0.0744665 9.05859 0.44775 10.2581 1.45746C11.4577 2.46717 12.2341 3.89068 12.4335 5.44587C12.633 7.00106 12.2408 8.57444 11.3349 9.85417L16.005 14.5312ZM9.40498 3.31166C8.80243 2.70885 8.0346 2.29827 7.19868 2.13185C6.36277 1.96543 5.49629 2.05065 4.70881 2.37673C3.92134 2.70282 3.24829 3.25511 2.77473 3.96376C2.30117 4.67242 2.04841 5.50559 2.04841 6.35791C2.04841 7.21023 2.30117 8.04341 2.77473 8.75206C3.24829 9.46072 3.92134 10.013 4.70881 10.3391C5.49629 10.6652 6.36277 10.7504 7.19868 10.584C8.0346 10.4176 8.80243 10.007 9.40498 9.40416C10.2122 8.59586 10.6655 7.50024 10.6655 6.35791C10.6655 5.21559 10.2122 4.11996 9.40498 3.31166Z"/>
    </g>
  </symbol>
	<symbol id="arrow-b" viewBox="0 0 14 9">
    <g>
			<path fill-rule="evenodd" clip-rule="evenodd" d="M6.99988 5.39485L12.2449 0L13.9949 1.8L6.99988 8.99485L0.00488281 1.8L1.75488 0L6.99988 5.39485Z"/>
    </g>
  </symbol>
	<symbol id="arrow-nav" viewBox="0 0 52 13">
    <g>
			<path fill-rule="evenodd" clip-rule="evenodd" d="M5.53228 1.46875L0.532284 6.46875L0.00195312 6.99908L0.532284 7.52941L5.53228 12.5294L6.59294 11.4688L2.12327 6.99908L6.59294 2.52941L5.53228 1.46875ZM50.9414 5.99908H8.00195V7.49908H50.9414V5.99908Z"/>
    </g>
  </symbol>
	<symbol id="form" viewBox="0 0 57 64">
    <g>
			<path fill-rule="evenodd" clip-rule="evenodd" d="M36.6829 6.68293C36.6829 5.57836 35.7875 4.68293 34.6829 4.68293H6.68293C5.57836 4.68293 4.68293 5.57836 4.68293 6.68293V40.9268C4.68293 42.0314 5.57836 42.9268 6.68293 42.9268H34.6829C35.7875 42.9268 36.6829 42.0314 36.6829 40.9268V6.68293ZM4 0C1.79086 0 0 1.79086 0 4V43.6098C0 45.8189 1.79086 47.6098 4 47.6098H37.3659C39.575 47.6098 41.3659 45.8189 41.3659 43.6098V4C41.3659 1.79086 39.575 0 37.3659 0H4Z" fill="white"/>
			<path fill-rule="evenodd" clip-rule="evenodd" d="M21.0732 53.0722V59.9991C21.0732 62.2082 22.8641 63.9991 25.0732 63.9991H52.1952C54.4043 63.9991 56.1952 62.2082 56.1952 59.9991V25.0723C56.1952 22.8631 54.4043 21.0723 52.1952 21.0723H46.0488V25.7552H49.5123C50.6168 25.7552 51.5123 26.6506 51.5123 27.7552V57.3162C51.5123 58.4207 50.6168 59.3162 49.5123 59.3162H27.7562C26.6516 59.3162 25.7562 58.4207 25.7562 57.3162V53.0722H21.0732Z" fill="#E33916"/>
			<rect x="10.9268" y="11.707" width="19.5122" height="4.68293" fill="white"/>
			<rect x="10.9268" y="21.0723" width="19.5122" height="4.68293" fill="white"/>
    </g>
  </symbol>
	<symbol id="chat" viewBox="0 0 63 64">
    <g>
			<path fill-rule="evenodd" clip-rule="evenodd" d="M10.6496 34.818C11.405 33.81 12.591 33.2167 13.8506 33.2167H42.2889C43.3934 33.2167 44.2889 32.3212 44.2889 31.2167V6.74524C44.2889 5.64067 43.3935 4.74524 42.2889 4.74524H6.74524C5.64067 4.74524 4.74524 5.64067 4.74524 6.74524V22.535V39.6952C4.74524 40.6565 5.96907 41.0641 6.54549 40.2949L10.6496 34.818ZM3.6005 52.138C2.44767 53.6765 0 52.8611 0 50.9387V4C0 1.79086 1.79086 0 4 0H45.0341C47.2433 0 49.0341 1.79086 49.0341 4V33.9619C49.0341 36.171 47.2433 37.9619 45.0341 37.9619H16.2245C14.9649 37.9619 13.7788 38.5552 13.0235 39.5632L3.6005 52.138Z" fill="white"/>
			<path fill-rule="evenodd" clip-rule="evenodd" d="M22.1445 42.7076V51.3616C22.1445 53.5708 23.9354 55.3616 26.1445 55.3616H46.2264C47.0331 55.3616 47.8209 55.6055 48.4864 56.0612L59.349 63.4996C60.6763 64.4085 62.479 63.4581 62.479 61.8495V28.5176C62.479 26.3084 60.6882 24.5176 58.479 24.5176H53.7794V29.2628H55.7338C56.8384 29.2628 57.7338 30.1582 57.7338 31.2628V35.9803V54.2221C57.7338 55.0311 56.8232 55.5053 56.1604 55.0413L50.8715 51.3394C50.1992 50.8688 49.3984 50.6164 48.5777 50.6164H28.8898C27.7852 50.6164 26.8898 49.721 26.8898 48.6164V42.7076H22.1445Z" fill="#E33916"/>
			<rect x="11.8633" y="11.8633" width="26.0988" height="4.74524" fill="white"/>
			<rect x="11.8633" y="21.3535" width="15.0266" height="4.74524" fill="white"/>
    </g>
  </symbol>
	<symbol id="pay" viewBox="0 0 67 64">
    <g>
			<path fill-rule="evenodd" clip-rule="evenodd" d="M54.6047 31.8918C54.7703 30.6821 54.8559 29.4464 54.8559 28.1905C54.8559 27.7395 54.8448 27.2912 54.823 26.8457C61.5806 29.8874 66.2853 36.6799 66.2853 44.5712C66.2853 55.3013 57.5869 63.9998 46.8568 63.9998C39.8791 63.9998 33.7606 60.3214 30.3345 54.798C32.0549 54.6823 33.7301 54.3987 35.3442 53.9632C38.0687 57.2988 42.214 59.4284 46.8568 59.4284C55.0621 59.4284 61.7139 52.7766 61.7139 44.5712C61.7139 39.2049 58.8688 34.503 54.6047 31.8918Z" fill="#E33916"/>
			<path fill-rule="evenodd" clip-rule="evenodd" d="M25.1428 45.7143C36.5041 45.7143 45.7143 36.5041 45.7143 25.1428C45.7143 13.7816 36.5041 4.57143 25.1428 4.57143C13.7816 4.57143 4.57143 13.7816 4.57143 25.1428C4.57143 36.5041 13.7816 45.7143 25.1428 45.7143ZM25.1428 50.2857C39.0289 50.2857 50.2857 39.0289 50.2857 25.1428C50.2857 11.2568 39.0289 0 25.1428 0C11.2568 0 0 11.2568 0 25.1428C0 39.0289 11.2568 50.2857 25.1428 50.2857Z" fill="white"/>
			<path d="M27.131 27.8301C31.7674 27.8301 34.6797 25.4048 34.6602 21.5379C34.6797 17.8561 31.8648 15.0996 27.131 15.0996H19.3388V24.4503H16.5044V27.8301H19.3388V29.1158H16.5044V32.4957H19.3388V35.0477H23.5271V32.4957H27.881V29.1158H23.5271V27.8301H27.131ZM23.5271 24.4503V18.5282H27.131C29.3615 18.5282 30.4524 19.8723 30.4427 21.5866C30.4524 23.3399 29.381 24.4503 27.0141 24.4503H23.5271Z" fill="white"/>
    </g>
  </symbol>
</svg>
