<?xml version="1.0" encoding="UTF-8"?>
<!DOCTYPE svg PUBLIC "-//W3C//DTD SVG 1.1//EN" "http://www.w3.org/Graphics/SVG/1.1/DTD/svg11.dtd">
<svg xmlns="http://www.w3.org/2000/svg">
	<symbol id="search" viewBox="0 0 16 16">
    <g>
			<path fill-rule="evenodd" clip-rule="evenodd" d="M16.005 14.5312L14.535 16.0042L9.86494 11.3302C8.58891 12.2413 7.01712 12.6398 5.46113 12.4467C3.90514 12.2536 2.47853 11.4829 1.46394 10.2875C0.449352 9.09211 -0.0791616 7.55916 -0.0167726 5.99247C0.0456164 4.42579 0.694299 2.93971 1.80073 1.82876C2.90717 0.717812 4.39068 0.0630737 5.9571 -0.0056964C7.52352 -0.0744665 9.05859 0.44775 10.2581 1.45746C11.4577 2.46717 12.2341 3.89068 12.4335 5.44587C12.633 7.00106 12.2408 8.57444 11.3349 9.85417L16.005 14.5312ZM9.40498 3.31166C8.80243 2.70885 8.0346 2.29827 7.19868 2.13185C6.36277 1.96543 5.49629 2.05065 4.70881 2.37673C3.92134 2.70282 3.24829 3.25511 2.77473 3.96376C2.30117 4.67242 2.04841 5.50559 2.04841 6.35791C2.04841 7.21023 2.30117 8.04341 2.77473 8.75206C3.24829 9.46072 3.92134 10.013 4.70881 10.3391C5.49629 10.6652 6.36277 10.7504 7.19868 10.584C8.0346 10.4176 8.80243 10.007 9.40498 9.40416C10.2122 8.59586 10.6655 7.50024 10.6655 6.35791C10.6655 5.21559 10.2122 4.11996 9.40498 3.31166Z"/>
    </g>
  </symbol>
</svg>
