<svg width="24" height="24" viewBox="0 0 24 24" fill="none" xmlns="http://www.w3.org/2000/svg"><path fill-rule="evenodd" clip-rule="evenodd" d="M21.08 0a1 1 0 01.996.917L22.166 2h-5.333l.09-1.083A1 1 0 0117.92 0h3.16zm-4.413 4l-.584 6.998a1 1 0 01-1.386.838L9.39 9.587A1 1 0 008 10.51v.369a1 1 0 01-1.39.92l-5.22-2.21A1 1 0 000 10.51V23a1 1 0 001 1h21.913a1 1 0 00.997-1.083L22.333 4h-5.666zM4 16a1 1 0 00-1 1v2a1 1 0 001 1h4a1 1 0 001-1v-2a1 1 0 00-1-1H4zm8 0a1 1 0 00-1 1v2a1 1 0 001 1h4a1 1 0 001-1v-2a1 1 0 00-1-1h-4z" fill="#E33916"/></svg>