<svg xmlns="http://www.w3.org/2000/svg"><symbol id="search" viewBox="0 0 16 16"><path fill-rule="evenodd" clip-rule="evenodd" d="M16.005 14.531l-1.47 1.473-4.67-4.674a6.253 6.253 0 111.47-1.476l4.67 4.677zm-6.6-11.22A4.31 4.31 0 103.31 9.406a4.31 4.31 0 006.095-6.093z"/></symbol><symbol id="arrow-b" viewBox="0 0 14 9"><path fill-rule="evenodd" clip-rule="evenodd" d="M7 5.395L12.245 0l1.75 1.8L7 8.995.005 1.8 1.755 0 7 5.395z"/></symbol><symbol id="arrow-nav" viewBox="0 0 52 13"><path fill-rule="evenodd" clip-rule="evenodd" d="M5.532 1.469l-5 5-.53.53.53.53 5 5 1.06-1.06-4.469-4.47 4.47-4.47-1.06-1.06zm45.41 4.53H8.001v1.5h42.94V6z"/></symbol></svg>