<svg xmlns="http://www.w3.org/2000/svg"><symbol id="search" viewBox="0 0 16 16"><path fill-rule="evenodd" clip-rule="evenodd" d="M16.005 14.531l-1.47 1.473-4.67-4.674a6.253 6.253 0 111.47-1.476l4.67 4.677zm-6.6-11.22A4.31 4.31 0 103.31 9.406a4.31 4.31 0 006.095-6.093z"/></symbol><symbol id="arrow-b" viewBox="0 0 14 9"><path fill-rule="evenodd" clip-rule="evenodd" d="M7 5.395L12.245 0l1.75 1.8L7 8.995.005 1.8 1.755 0 7 5.395z"/></symbol><symbol id="arrow-nav" viewBox="0 0 52 13"><path fill-rule="evenodd" clip-rule="evenodd" d="M5.532 1.469l-5 5-.53.53.53.53 5 5 1.06-1.06-4.469-4.47 4.47-4.47-1.06-1.06zm45.41 4.53H8.001v1.5h42.94V6z"/></symbol><symbol id="form" viewBox="0 0 57 64"><path fill-rule="evenodd" clip-rule="evenodd" d="M36.683 6.683a2 2 0 00-2-2h-28a2 2 0 00-2 2v34.244a2 2 0 002 2h28a2 2 0 002-2V6.683zM4 0a4 4 0 00-4 4v39.61a4 4 0 004 4h33.366a4 4 0 004-4V4a4 4 0 00-4-4H4z" fill="#fff"/><path fill-rule="evenodd" clip-rule="evenodd" d="M21.073 53.072V60a4 4 0 004 4h27.122a4 4 0 004-4V25.072a4 4 0 00-4-4H46.05v4.683h3.463a2 2 0 012 2v29.561a2 2 0 01-2 2H27.756a2 2 0 01-2-2v-4.244h-4.683z" fill="#E33916"/><path fill="#fff" d="M10.927 11.707h19.512v4.683H10.927zm0 9.365h19.512v4.683H10.927z"/></symbol><symbol id="chat" viewBox="0 0 63 64"><path fill-rule="evenodd" clip-rule="evenodd" d="M10.65 34.818a4 4 0 013.2-1.601h28.44a2 2 0 002-2V6.745a2 2 0 00-2-2H6.745a2 2 0 00-2 2v32.95c0 .962 1.224 1.37 1.8.6l4.105-5.477zM3.6 52.138c-1.152 1.538-3.6.723-3.6-1.2V4a4 4 0 014-4h41.034a4 4 0 014 4v29.962a4 4 0 01-4 4h-28.81a4 4 0 00-3.2 1.601L3.6 52.138z" fill="#fff"/><path fill-rule="evenodd" clip-rule="evenodd" d="M22.145 42.708v8.654a4 4 0 004 4h20.081a4 4 0 012.26.7L59.35 63.5c1.327.909 3.13-.042 3.13-1.65V28.517a4 4 0 00-4-4h-4.7v4.745h1.955a2 2 0 012 2v22.959a1 1 0 01-1.574.82l-5.288-3.703a4 4 0 00-2.294-.723H28.89a2 2 0 01-2-2v-5.908h-4.745z" fill="#E33916"/><path fill="#fff" d="M11.863 11.863h26.099v4.745H11.863zm0 9.491H26.89v4.745H11.863z"/></symbol><symbol id="pay" viewBox="0 0 67 64"><path fill-rule="evenodd" clip-rule="evenodd" d="M54.605 31.892a27.28 27.28 0 00.218-5.046c6.758 3.041 11.462 9.834 11.462 17.725C66.285 55.301 57.587 64 46.857 64c-6.978 0-13.096-3.679-16.523-9.202 1.72-.116 3.396-.4 5.01-.835a14.828 14.828 0 0011.513 5.465c8.205 0 14.857-6.651 14.857-14.857 0-5.366-2.845-10.068-7.11-12.68z" fill="#E33916"/><path fill-rule="evenodd" clip-rule="evenodd" d="M25.143 45.714c11.361 0 20.571-9.21 20.571-20.571S36.504 4.57 25.143 4.57 4.57 13.781 4.57 25.143c0 11.361 9.21 20.571 20.572 20.571zm0 4.572c13.886 0 25.143-11.257 25.143-25.143C50.286 11.257 39.029 0 25.143 0 11.257 0 0 11.257 0 25.143c0 13.886 11.257 25.143 25.143 25.143z" fill="#fff"/><path d="M27.131 27.83c4.636 0 7.549-2.425 7.53-6.292.019-3.682-2.796-6.438-7.53-6.438h-7.792v9.35h-2.835v3.38h2.835v1.286h-2.835v3.38h2.835v2.552h4.188v-2.552h4.354v-3.38h-4.354V27.83h3.604zm-3.604-3.38v-5.922h3.604c2.23 0 3.321 1.344 3.312 3.059.01 1.753-1.062 2.863-3.429 2.863h-3.487z" fill="#fff"/></symbol><symbol id="flag" viewBox="0 0 144 50"><path fill-rule="evenodd" clip-rule="evenodd" d="M0 50h143.622L71.811 0 0 50z" fill="#fff"/><g clip-path="url(#clip0_1239:2133)"><path fill-rule="evenodd" clip-rule="evenodd" d="M72.037 35.395L77.31 30l1.76 1.8-7.033 7.195-7.033-7.195 1.76-1.8 5.273 5.395z" fill="#323639"/></g><defs><clipPath id="clip0_1239:2133"><path fill="#fff" transform="translate(65 30)" d="M0 0h14.075v9H0z"/></clipPath></defs></symbol></svg>